<?xml version="1.0" encoding="iso-8859-1"?>
<!-- Generator: Adobe Illustrator 17.1.0, SVG Export Plug-In . SVG Version: 6.00 Build 0)  -->
<!DOCTYPE svg PUBLIC "-//W3C//DTD SVG 1.1//EN" "http://www.w3.org/Graphics/SVG/1.1/DTD/svg11.dtd">
<svg version="1.1" id="Capa_1" xmlns="http://www.w3.org/2000/svg" xmlns:xlink="http://www.w3.org/1999/xlink" x="0px" y="0px"
	 viewBox="0 0 246.02 246.02" style="enable-background:new 0 0 246.02 246.02;" xml:space="preserve">
<path d="M245.796,220.185L211.892,22.74c-0.618-3.6-3.739-6.23-7.392-6.23h-165c-3.681,0-6.816,2.67-7.404,6.304l-32,198
	c-0.351,2.17,0.269,4.385,1.693,6.059s3.513,2.638,5.711,2.638h231c0.006,0,0.014,0,0.014,0c4.148,0,7.506-3.357,7.506-7.5
	C246.02,221.38,245.943,220.769,245.796,220.185z M173.021,68.114C166.43,81.296,152.402,97.01,123,97.01
	S79.571,81.296,72.98,68.114C66.079,54.314,66,40.587,66,40.01c0-4.143,3.357-7.5,7.5-7.5c4.135,0,7.488,3.347,7.5,7.479
	c0.003,0.247,0.171,11.245,5.606,21.834C93.483,75.218,105.728,82.01,123,82.01c41.522,0,42-40.285,42-42c0-4.143,3.357-7.5,7.5-7.5
	s7.5,3.357,7.5,7.5C180,40.587,179.921,54.314,173.021,68.114z"/>
<g>
</g>
<g>
</g>
<g>
</g>
<g>
</g>
<g>
</g>
<g>
</g>
<g>
</g>
<g>
</g>
<g>
</g>
<g>
</g>
<g>
</g>
<g>
</g>
<g>
</g>
<g>
</g>
<g>
</g>
</svg>
